<svg width="185" height="46" viewBox="0 0 185 46" fill="none" xmlns="http://www.w3.org/2000/svg">
<g clip-path="url(#clip0)">
<path d="M3.66966 18.1292L6.27676 28.1522C6.84638 30.3431 7.37218 32.3915 7.74463 34.429H7.86512C8.31425 32.4353 8.96054 30.3212 9.6178 28.1522L12.8383 18.1292H15.8507L18.907 27.9879C19.6409 30.354 20.2105 32.4353 20.6596 34.429H20.813C21.1934 32.2702 21.6944 30.1345 22.3137 28.0317L25.129 18.173H28.6781L22.3137 37.8905H19.0275L16.0151 28.4809C15.3249 26.29 14.7553 24.3292 14.2624 22.0069H14.2405C13.7465 24.1982 13.1284 26.3597 12.3892 28.4809L9.21249 37.8577H5.92623L0 18.1292H3.66966Z" fill="#47585B"/>
<path d="M49.6992 27.8346C49.6992 35.1301 44.6493 38.3068 39.8404 38.3068C34.4948 38.3068 30.376 34.3962 30.376 28.1523C30.376 21.5797 34.7029 17.6801 40.1581 17.6801C45.8652 17.6801 49.6992 21.7988 49.6992 27.8346ZM34.0456 28.0318C34.0456 32.3587 36.5322 35.6121 40.0376 35.6121C43.5429 35.6121 46.0295 32.3915 46.0295 27.9441C46.0295 24.6031 44.3645 20.3638 40.1252 20.3638C35.8859 20.3638 34.0456 24.2854 34.0456 28.0318Z" fill="#47585B"/>
<path d="M54.2346 24.2854C54.2346 21.9631 54.2346 19.9037 54.0703 18.1292H57.2142L57.3347 21.996H57.499C57.8385 20.79 58.5515 19.7226 59.5355 18.9472C60.5196 18.1717 61.7241 17.7281 62.9761 17.68C63.3194 17.6763 63.6618 17.7168 63.9948 17.8005V21.1854C63.5951 21.1012 63.1874 21.0608 62.7789 21.0649C60.2485 21.0649 58.452 22.9819 57.97 25.6657C57.856 26.2321 57.7937 26.8077 57.7838 27.3855V37.9015H54.2346V24.2854Z" fill="#47585B"/>
<path d="M67.7412 8.91675H71.3232V37.8578H67.7412V8.91675Z" fill="#47585B"/>
<path d="M94.3929 8.91675V32.764C94.3929 34.5167 94.3929 36.5104 94.5572 37.8577H91.3366L91.1833 34.4291H91.0956C90.4561 35.6526 89.4826 36.6695 88.2882 37.3618C87.0937 38.054 85.7274 38.3931 84.3478 38.3397C79.5827 38.3397 75.9131 34.3086 75.9131 28.3166C75.9131 21.7441 79.9442 17.713 84.7531 17.713C85.925 17.637 87.0957 17.8763 88.1437 18.4061C89.1917 18.9358 90.0786 19.7367 90.7122 20.7254H90.7889V8.91675H94.3929ZM90.8108 26.1586C90.8158 25.65 90.7607 25.1426 90.6465 24.647C90.3894 23.4619 89.7314 22.4017 88.7835 21.6454C87.8356 20.8891 86.6558 20.4829 85.4433 20.4953C81.7298 20.4953 79.528 23.7816 79.528 28.1633C79.528 32.1506 81.4888 35.4588 85.3556 35.4588C86.59 35.4549 87.7857 35.0275 88.7428 34.2479C89.6998 33.4683 90.3603 32.3838 90.6136 31.1757C90.7475 30.6532 90.8137 30.1157 90.8108 29.5764V26.1586Z" fill="#47585B"/>
<path d="M104.679 13.397V18.1292H109.816V20.813H104.679V31.4495C104.679 33.9032 105.38 35.2834 107.373 35.2834C108.076 35.3122 108.778 35.2308 109.455 35.0425L109.619 37.7262C108.599 38.1028 107.518 38.2848 106.431 38.263C105.713 38.2996 104.995 38.1795 104.327 37.9109C103.659 37.6423 103.058 37.2317 102.565 36.7075C101.546 35.6121 101.173 33.9032 101.173 31.5809V20.813H98.1172V18.1292H101.173V14.5033L104.679 13.397Z" fill="#FFBA08"/>
<path d="M113.859 24.2854C113.859 21.9631 113.859 19.9037 113.694 18.1292H116.838L116.959 21.996H117.123C117.463 20.79 118.176 19.7226 119.16 18.9472C120.144 18.1717 121.348 17.7281 122.6 17.68C122.943 17.6763 123.286 17.7168 123.619 17.8005V21.1854C123.219 21.1012 122.811 21.0608 122.403 21.0649C119.873 21.0649 118.021 22.9819 117.594 25.6657C117.49 26.2184 117.435 26.7792 117.43 27.3416V37.8577H113.881L113.859 24.2854Z" fill="#FFBA08"/>
<path d="M131.352 12.5864C131.352 13.1762 131.118 13.7418 130.701 14.1588C130.284 14.5758 129.719 14.8101 129.129 14.8101C128.539 14.8101 127.973 14.5758 127.556 14.1588C127.139 13.7418 126.905 13.1762 126.905 12.5864C126.897 12.2895 126.95 11.9941 127.061 11.7182C127.171 11.4424 127.336 11.1918 127.546 10.9818C127.756 10.7717 128.007 10.6066 128.282 10.4964C128.558 10.3862 128.854 10.3333 129.151 10.3408C129.444 10.3392 129.735 10.3966 130.005 10.5094C130.276 10.6223 130.521 10.7884 130.727 10.9978C130.932 11.2072 131.093 11.4557 131.201 11.7286C131.308 12.0015 131.36 12.2932 131.352 12.5864ZM127.354 37.8578V18.1402H130.947V37.8578H127.354Z" fill="#FFBA08"/>
<path d="M136.928 24.5702C136.928 22.0398 136.84 20.0023 136.764 18.1292H139.984L140.138 21.514H140.214C140.924 20.2981 141.952 19.2986 143.187 18.6231C144.422 17.9475 145.818 17.6215 147.225 17.68C151.99 17.68 155.583 21.7112 155.583 27.7031C155.583 34.8015 151.201 38.3068 146.612 38.3068C145.418 38.3595 144.232 38.1015 143.168 37.5581C142.104 37.0147 141.2 36.2045 140.543 35.2068H140.455V45.92H136.928V24.5702ZM140.466 29.8282C140.479 30.3213 140.534 30.8124 140.631 31.2961C140.931 32.495 141.623 33.559 142.598 34.3192C143.572 35.0793 144.773 35.492 146.009 35.4916C149.799 35.4916 152.001 32.3915 152.001 27.8236C152.001 23.8692 149.92 20.4953 146.13 20.4953C144.864 20.5311 143.645 20.9862 142.666 21.7891C141.687 22.592 141.002 23.6974 140.718 24.9317C140.568 25.4073 140.483 25.9011 140.466 26.3996V29.8282Z" fill="#FFBA08"/>
<path d="M-1.0951 35.2177C100.231 44.6383 159.822 18.1292 159.822 18.1292C159.822 18.1292 117.922 47.9136 -2.63965 42.1407" fill="#F5F8FA"/>
<path d="M101.217 32.8626C138.034 27.2212 158.179 18.2388 158.179 18.2388C158.179 18.2388 137.366 32.4792 102.75 37.0033" stroke="#FFBA08" stroke-miterlimit="10"/>
<path d="M5.38965 35.9845C37.347 38.5899 69.4972 37.5425 101.217 32.8625" stroke="#47585B" stroke-miterlimit="10"/>
<path d="M174.676 22.489C174.107 18.9179 173.581 15.544 173.022 12.0277L172.124 12.7617C170.124 14.5258 167.823 15.9171 165.332 16.8695C164.941 17.0413 164.512 17.1132 164.086 17.0787C163.66 17.0443 163.249 16.9047 162.889 16.6723C161.345 15.6864 159.746 14.7663 158.157 13.8242C158.395 13.4763 158.728 13.2045 159.117 13.0413C159.506 12.8781 159.933 12.8304 160.348 12.9041C161.6 13.0374 162.858 13.0996 164.116 13.0903C164.511 13.0841 164.895 12.9538 165.212 12.7178C169.593 8.99341 173.975 5.25437 178.357 1.50073C179.495 0.498454 180.97 -0.037461 182.486 9.17108e-06C183.845 9.17108e-06 184.414 0.898254 183.834 2.19085C183.513 2.83889 183.071 3.41907 182.53 3.8997C181.249 5.0718 179.912 6.17818 178.576 7.28455C178.402 7.4121 178.259 7.57649 178.157 7.7659C178.055 7.95531 177.996 8.16502 177.984 8.37997C177.7 12.0825 177.349 15.785 177.064 19.4875C177.062 19.8625 176.968 20.2312 176.79 20.5615C176.612 20.8918 176.357 21.1737 176.045 21.3826C175.57 21.7273 175.113 22.0966 174.676 22.489Z" fill="#47585B"/>
<path d="M162.604 6.92309C163.623 6.04675 164.335 4.90752 165.978 5.15946C167.622 5.41141 169.265 5.42236 170.995 5.54286L171.554 5.61954C170.305 6.71496 169.166 7.63511 168.016 8.58812C167.95 8.63575 167.876 8.66913 167.796 8.68611C167.717 8.70309 167.635 8.7033 167.556 8.68671C166.022 8.20473 164.489 7.71179 162.966 7.20789C162.856 7.17503 162.78 7.06549 162.604 6.92309Z" fill="#47585B"/>
</g>
<defs>
<clipPath id="clip0">
<rect width="184.064" height="45.92" fill="white"/>
</clipPath>
</defs>
</svg>
